<?xml version="1.0" encoding="UTF-8"?>
<svg id="Layer_1" xmlns="http://www.w3.org/2000/svg" version="1.1" viewBox="0 0 27.584 27.6">
  <!-- Generator: Adobe Illustrator 29.3.1, SVG Export Plug-In . SVG Version: 2.1.0 Build 151)  -->
  <defs>
    <style>
      .st0 {
        fill: #fff;
        fill-rule: evenodd;
      }
    </style>
  </defs>
  <path class="st0" d="M27.38,12.858c-6.213-1.597-11.088-6.446-12.724-12.656-.032-.119-.139-.202-.263-.203h-1.204c-.123,0-.231.084-.263.203C11.292,6.412,6.417,11.261.204,12.858c-.12.031-.204.14-.204.264v1.356c0,.124.084.232.204.264,6.213,1.597,11.088,6.446,12.724,12.656.032.119.139.202.263.203h1.204c.123,0,.231-.084.263-.203,1.636-6.209,6.511-11.058,12.724-12.656.12-.031.204-.14.204-.264v-1.356c0-.124-.084-.232-.204-.264Z"/>
</svg>