<?xml version="1.0" encoding="utf-8"?>
<!-- Generator: Adobe Illustrator 25.4.1, SVG Export Plug-In . SVG Version: 6.00 Build 0)  -->
<svg version="1.1" id="Layer_1" xmlns="http://www.w3.org/2000/svg" xmlns:xlink="http://www.w3.org/1999/xlink" x="0px" y="0px"
	 viewBox="0 0 2500 2500" style="enable-background:new 0 0 2500 2500;" xml:space="preserve">
<style type="text/css">
	.st0{fill:#FFFFFF;}
</style>
<path class="st0" d="M0,1250c0-226.667,55.835-435.833,167.5-627.5c111.668-191.667,263.335-343.332,455-455
	C814.167,55.833,1023.335,0,1250,0c226.667,0,435.835,55.833,627.5,167.5c191.667,111.668,343.335,263.333,455,455
	C2444.167,814.167,2500,1023.333,2500,1250s-55.833,435.833-167.5,627.5c-111.665,191.667-263.333,343.333-455,455
	C1685.835,2444.167,1476.667,2500,1250,2500c-226.665,0-435.833-55.833-627.5-167.5c-191.665-111.667-343.332-263.333-455-455
	C55.835,1685.833,0,1476.667,0,1250z M207.5,1250c0,260,87.5,489.167,262.5,687.5c80-156.667,206.667-305.833,380-447.5
	c173.335-141.667,342.5-230.833,507.5-267.5c-25-58.333-49.165-110.833-72.5-157.5c-286.665,91.667-596.665,137.5-930,137.5
	c-65,0-113.333-0.833-145-2.5c0,6.667-0.415,15-1.25,25C207.917,1235,207.5,1243.333,207.5,1250z M240,992.5
	c36.668,3.333,90.835,5,162.5,5C680.835,997.5,945,960,1195,885c-126.665-225-265.833-412.5-417.5-562.5
	C645.835,389.167,532.917,481.667,438.75,600C344.585,718.333,278.335,849.167,240,992.5z M612.5,2072.5
	c188.335,146.667,400.835,220,637.5,220c123.335,0,245.835-23.333,367.5-70c-33.333-285-98.333-560.833-195-827.5
	c-153.333,33.333-307.915,117.5-463.75,252.5C802.917,1782.5,687.5,1924.167,612.5,2072.5z M995,242.5
	c146.667,151.667,282.5,340.832,407.5,567.5c226.667-95,397.5-215.833,512.5-362.5c-193.333-160-415-240-665-240
	C1165,207.5,1080,219.167,995,242.5z M1492.5,987.5c25,53.333,53.335,120.833,85,202.5c123.335-11.667,257.5-17.5,402.5-17.5
	c103.335,0,205.835,2.5,307.5,7.5c-13.333-226.667-95-428.333-245-605C1934.167,736.667,1750.835,874.167,1492.5,987.5z M1640,1365
	c85,246.667,142.5,500,172.5,760c131.667-85,239.167-194.167,322.5-327.5c83.335-133.333,133.335-277.5,150-432.5
	c-121.665-8.333-232.5-12.5-332.5-12.5C1860.835,1352.5,1756.667,1356.667,1640,1365z"/>
</svg>
