<?xml version="1.0" encoding="utf-8"?>
<!-- Generator: Adobe Illustrator 25.4.1, SVG Export Plug-In . SVG Version: 6.00 Build 0)  -->
<svg version="1.1" id="Layer_1" xmlns="http://www.w3.org/2000/svg" xmlns:xlink="http://www.w3.org/1999/xlink" x="0px" y="0px"
	 viewBox="0 0 64 64" style="enable-background:new 0 0 64 64;" xml:space="preserve">
<style type="text/css">
	.st0{fill:#FFFFFF;}
</style>
<g>
	<path d="M41.8,63.776c-1.172,0-2.261-0.359-3.164-0.974c-0.902,0.615-1.992,0.974-3.164,0.974h-0.307
		c-1.172,0-2.261-0.359-3.164-0.974c-0.903,0.615-1.992,0.974-3.164,0.974h-0.307c-1.172,0-2.261-0.359-3.164-0.974
		c-0.903,0.615-1.992,0.974-3.164,0.974h-0.307c-3.109,0-5.638-2.529-5.638-5.638v-1.685c-2.823-0.756-5.233-2.667-6.608-5.356
		c-1.133-2.214-1.426-4.756-0.877-7.142l-0.5-0.793c-2.81-4.455-4.295-9.612-4.295-14.913c0-7.485,2.915-14.522,8.208-19.816
		s12.331-8.208,19.816-8.208c7.482,0,14.528,2.938,19.838,8.273c5.312,5.335,8.22,12.395,8.186,19.88
		c-0.023,5.252-1.507,10.366-4.294,14.785l-0.497,0.789c0.596,2.562,0.213,5.279-1.134,7.614c-1.401,2.426-3.709,4.163-6.353,4.881
		v1.692c0,3.109-2.53,5.638-5.639,5.638H41.8z"/>
	<path class="st0" d="M55.994,28.359c0.028-6.404-2.462-12.448-7.012-17.019C44.433,6.771,38.402,4.254,32,4.254h0
		c-6.409,0-12.434,2.496-16.966,7.028c-4.532,4.532-7.028,10.557-7.028,16.966c0,4.538,1.27,8.952,3.674,12.764l1.527,2.422
		c-0.883,1.773-0.942,3.927,0.029,5.826c1.352,2.644,4.275,3.958,7.05,3.388v5.489c0,0.888,0.72,1.608,1.608,1.608H22.2
		c0.888,0,1.608-0.72,1.608-1.608v-3.05c0-0.859,0.697-1.556,1.556-1.556c0.859,0,1.556,0.697,1.556,1.556v3.05
		c0,0.888,0.72,1.608,1.608,1.608h0.307c0.888,0,1.608-0.72,1.608-1.608v-3.05c0-0.859,0.697-1.556,1.556-1.556
		c0.859,0,1.556,0.697,1.556,1.556v3.05c0,0.888,0.72,1.608,1.608,1.608h0.307c0.888,0,1.608-0.72,1.608-1.608v-3.05
		c0-0.859,0.697-1.556,1.556-1.556c0.859,0,1.556,0.697,1.556,1.556v3.05c0,0.888,0.72,1.608,1.608,1.608h0.307
		c0.888,0,1.608-0.72,1.608-1.608v-5.488c2.651,0.543,5.465-0.627,6.893-3.099c1.125-1.949,1.119-4.24,0.186-6.115l1.527-2.423
		C54.704,37.233,55.974,32.857,55.994,28.359z M19.541,40.657c-3.954,0-6.298-2.881-6.298-7.172c0-4.291,4.168-8.092,8.827-8.092
		c1.88,0,8.321-0.046,8.321,5.103S23.495,40.657,19.541,40.657z M34.068,47.093c-0.531,0-1.041-0.211-1.417-0.587
		c-0.359-0.359-0.942-0.359-1.301,0c-0.376,0.376-0.886,0.587-1.417,0.587h0c-1.411,0-2.42-1.098-2.01-2.189
		c0.924-2.455,2.804-5.719,4.078-5.719c1.274,0,3.154,3.264,4.078,5.719C36.488,45.995,35.479,47.093,34.068,47.093z M44.459,40.657
		c-3.954,0-10.85-5.011-10.85-10.16s6.442-5.103,8.321-5.103c4.659,0,8.827,3.801,8.827,8.092
		C50.758,37.776,48.413,40.657,44.459,40.657z"/>
</g>
</svg>
