<?xml version="1.0" encoding="utf-8"?>
<!-- Generator: Adobe Illustrator 25.4.1, SVG Export Plug-In . SVG Version: 6.00 Build 0)  -->
<svg version="1.1" id="Layer_1" xmlns="http://www.w3.org/2000/svg" xmlns:xlink="http://www.w3.org/1999/xlink" x="0px" y="0px"
	 viewBox="0 0 76 78" style="enable-background:new 0 0 76 78;" xml:space="preserve">
<style type="text/css">
	.st0{fill:#FFFFFF;}
	.st1{opacity:0.5;}
</style>
<g>
	<path class="st0" d="M53.7,0.5H22.3c-12,0-21.8,9.8-21.8,21.8v33.4c0,12,9.8,21.8,21.8,21.8h31.4c12,0,21.8-9.8,21.8-21.8V22.3
		C75.5,10.3,65.7,0.5,53.7,0.5z M69.7,55.7C69.7,60,68,64,65,67c-3,3-7.1,4.7-11.3,4.7H22.3C18,71.7,14,70,11,67s-4.7-7.1-4.7-11.3
		V22.3C6.3,18,8,14,11,11s7.1-4.7,11.3-4.7h31.4C58,6.3,62,8,65,11c3,3,4.7,7.1,4.7,11.3V55.7z"/>
	<path class="st0" d="M38.1,18.1c-11.4,0-20.6,9.2-20.6,20.6s9.2,20.7,20.7,20.7s20.7-9.2,20.7-20.7S49.5,18.1,38.1,18.1z M38,52.3
		c-7.5,0-13.5-6.1-13.5-13.6S30.6,25.2,38,25.2c7.5,0,13.5,6.1,13.5,13.5C51.5,46.2,45.5,52.3,38,52.3z"/>
	<circle class="st0" cx="59.1" cy="17.7" r="4.9"/>
</g>
<g class="st1">
	<path class="st0" d="M53.7,0.5H22.3c-12,0-21.8,9.8-21.8,21.8v33.4c0,12,9.8,21.8,21.8,21.8h31.4c12,0,21.8-9.8,21.8-21.8V22.3
		C75.5,10.3,65.7,0.5,53.7,0.5z M69.7,55.7C69.7,60,68,64,65,67c-3,3-7.1,4.7-11.3,4.7H22.3C18,71.7,14,70,11,67s-4.7-7.1-4.7-11.3
		V22.3C6.3,18,8,14,11,11s7.1-4.7,11.3-4.7h31.4C58,6.3,62,8,65,11c3,3,4.7,7.1,4.7,11.3V55.7z"/>
	<path class="st0" d="M38.1,18.1c-11.4,0-20.6,9.2-20.6,20.6s9.2,20.7,20.7,20.7s20.7-9.2,20.7-20.7S49.5,18.1,38.1,18.1z M38,52.3
		c-7.5,0-13.5-6.1-13.5-13.6S30.6,25.2,38,25.2c7.5,0,13.5,6.1,13.5,13.5C51.5,46.2,45.5,52.3,38,52.3z"/>
	<circle class="st0" cx="59.1" cy="17.7" r="4.9"/>
</g>
</svg>
