<?xml version="1.0" encoding="UTF-8"?>
<svg id="Layer_1" xmlns="http://www.w3.org/2000/svg" version="1.1" viewBox="0 0 126 188">
  <!-- Generator: Adobe Illustrator 29.4.0, SVG Export Plug-In . SVG Version: 2.1.0 Build 152)  -->
  <defs>
    <style>
      .st0 {
        fill: #fff;
      }
    </style>
  </defs>
  <path class="st0" d="M63.094,188C2.652,187.718.114,177.002.114,175.78c0-15.698,4.982-31.02,17.86-40.138,24.158-18.142,27.259-35.062,28.199-45.778v-7.802h-19.458c-2.162-4.418-3.478-8.178-3.478-12.878l21.902-14.382c-7.52-5.358-12.502-14.382-12.502-24.44C32.638,13.442,46.08,0,63,0s30.362,13.442,30.362,30.362c0,10.058-4.982,19.082-12.502,24.44l21.902,14.382c0,4.7-1.222,8.46-3.478,12.878h-19.458v7.802c.94,10.622,4.042,27.542,28.2,45.778,12.878,9.118,17.86,24.44,17.86,40.138,0,1.222-2.538,11.938-62.98,12.22h.188Z"/>
</svg>