<?xml version="1.0" encoding="UTF-8"?>
<svg id="Layer_1" xmlns="http://www.w3.org/2000/svg" version="1.1" viewBox="0 0 431.118 500">
  <!-- Generator: Adobe Illustrator 29.4.0, SVG Export Plug-In . SVG Version: 2.1.0 Build 152)  -->
  <defs>
    <style>
      .st0 {
        fill: #fff;
      }
    </style>
  </defs>
  <path class="st0" d="M267.332,392.105h-103.734l134.976-135.044,2.128-2.243c10.866-11.788,19.73-25.596,25.634-39.936,6.141-14.812,9.596-30.43,10.28-46.452.692-15.879-1.436-31.709-6.326-47.062-2.418-7.581-5.526-15.004-9.239-22.059-3.651-6.918-8.025-13.66-12.994-20.022-4.864-6.224-10.319-12.093-16.213-17.443-5.871-5.276-12.29-10.108-19.033-14.317-6.764-4.225-13.939-7.873-21.327-10.841-7.198-2.905-14.881-5.213-22.852-6.869-15.647-3.239-31.616-3.711-47.454-1.404-15.807,2.317-30.99,7.391-45.112,15.078-7.134,3.883-13.811,8.323-19.845,13.197l-.285.224c-.67.511-1.304,1.062-1.943,1.607l-2.479,2.126c-1.288,1.085-2.52,2.256-3.824,3.496l-4.125,4.008-3.224,3.224c-1.911,1.911-5.009,1.911-6.919,0l-12.139-12.139c-1.916-1.917-1.91-5.026.015-6.934l7.806-7.708c1.539-1.463,3.129-2.976,4.948-4.505l2.386-2.048c.901-.769,1.876-1.602,2.969-2.446,7.262-5.85,15.256-11.164,23.764-15.795,16.926-9.213,35.13-15.295,54.108-18.076,18.967-2.766,38.084-2.2,56.828,1.681,9.553,1.983,18.787,4.761,27.455,8.259,8.836,3.551,17.435,7.922,25.539,12.984,8.065,5.035,15.745,10.815,22.823,17.179,7.075,6.421,13.583,13.423,19.392,20.855,5.95,7.621,11.199,15.712,15.601,24.054,4.453,8.465,8.176,17.357,11.073,26.443,5.857,18.389,8.405,37.367,7.576,56.414-.82,19.175-4.957,37.882-12.299,55.59-7.106,17.261-17.761,33.869-30.801,47.995l-4.682,4.889-87.066,87.064h38.615c2.702,0,4.893,2.191,4.893,4.893v17.188c0,2.702-2.191,4.893-4.893,4.893Z"/>
  <path class="st0" d="M267.332,446.052H113.867c-12.647,0-24.553-6.81-30.245-18.104-6.501-12.897-3.955-28.207,6.113-38.274l168.792-168.791c.487-.498,1.055-1.098,1.623-1.699l.957-1.006c3.232-3.515,6.166-7.301,8.724-11.259l1.414-2.262c.095-.15.192-.298.281-.45l1.972-3.557,1.635-3.307c.299-.652.582-1.311.866-1.97l.569-1.307c3.664-8.881,5.732-18.27,6.149-27.907.423-9.542-.864-19.091-3.822-28.393-1.453-4.556-3.32-9.023-5.55-13.271-2.162-4.099-4.795-8.149-7.811-12.014-2.943-3.765-6.257-7.333-9.842-10.596-3.502-3.139-7.379-6.055-11.454-8.6-4.068-2.54-8.381-4.735-12.817-6.522-4.265-1.728-8.88-3.112-13.745-4.123-9.445-1.952-19.094-2.241-28.668-.85-9.483,1.391-18.621,4.446-27.137,9.076-4.332,2.358-8.335,5.017-11.89,7.901-3.809,3.035-7.332,6.575-11.063,10.323l-.431.43c-1.911,1.911-5.009,1.91-6.919,0l-12.154-12.154c-1.911-1.911-1.911-5.008,0-6.919l.386-.386c4.105-4.124,8.35-8.388,13.282-12.318,4.74-3.845,10.119-7.426,15.899-10.572,11.322-6.155,23.477-10.216,36.132-12.073,12.707-1.843,25.496-1.464,38.038,1.129,6.463,1.343,12.64,3.201,18.376,5.526,5.868,2.364,11.597,5.279,17.001,8.653,5.389,3.366,10.518,7.223,15.247,11.464,4.777,4.349,9.132,9.038,13.015,14.005,4.003,5.128,7.508,10.529,10.425,16.058,2.971,5.66,5.45,11.589,7.382,17.647,3.926,12.346,5.631,25.047,5.068,37.759-.554,12.813-3.319,25.312-8.214,37.138l-.685,1.581c-.4.928-.801,1.856-1.226,2.772l-.147.305-2.157,4.327-1.984,3.574c-.371.688-.777,1.355-1.195,2.016l-1.507,2.408c-3.422,5.308-7.349,10.377-11.672,15.068l-1.142,1.204c-.678.714-1.354,1.429-2.044,2.131l-168.884,168.885c-2.488,2.487-1.89,5.199-1.311,6.595.577,1.395,2.072,3.735,5.59,3.735h154.246c2.702,0,4.893,2.191,4.893,4.893v17.188c0,2.702-2.191,4.893-4.893,4.893Z"/>
  <path class="st0" d="M267.332,500H114.074c-35.129,0-67.385-20.556-81.113-52.891-14.137-33.297-7.002-69.953,18.522-95.476l168.969-168.969.343-.375c.276-.298.517-.55.751-.792,1.066-1.175,2.029-2.417,2.867-3.694.159-.257.318-.513.479-.768.044-.069.089-.14.134-.209.211-.391.429-.778.649-1.163.194-.407.394-.81.598-1.211l.069-.161c.147-.346.293-.691.449-1.033,1.182-2.949,1.881-6.189,2.026-9.389.15-3.162-.308-6.514-1.324-9.718-.487-1.53-1.119-3.051-1.876-4.508-.661-1.249-1.552-2.611-2.613-3.971-1.006-1.285-2.163-2.539-3.426-3.709-1.217-1.074-2.534-2.057-3.919-2.923-1.374-.858-2.832-1.604-4.331-2.212-1.362-.56-2.853-1.001-4.619-1.369-3.19-.656-6.625-.758-9.898-.292-3.134.463-6.234,1.503-9.158,3.084-1.508.821-2.781,1.659-3.862,2.549l-.421.347c-.31.272-.597.519-.888.763l-.162.142c-.218.214-.438.427-.661.635-.171.163-.377.353-.597.553l-4.43,4.428c-1.911,1.91-5.008,1.91-6.919,0l-12.144-12.144c-1.915-1.915-1.91-5.02.01-6.929l5.85-5.796c.397-.389,1.023-1.003,1.846-1.662l.296-.254c.281-.255.766-.695,1.421-1.186,2.329-1.88,4.886-3.568,7.802-5.154,5.728-3.098,11.823-5.135,18.143-6.066,6.468-.924,12.922-.727,19.247.573,3.455.722,6.502,1.64,9.358,2.816,2.871,1.166,5.723,2.623,8.416,4.305,2.702,1.69,5.268,3.613,7.636,5.718l.172.155c2.365,2.178,4.548,4.539,6.491,7.02,2.055,2.633,3.816,5.34,5.256,8.068,1.505,2.897,2.734,5.854,3.691,8.863,2,6.312,2.859,12.742,2.558,19.122-.29,6.423-1.678,12.702-4.122,18.641l-.435.996c-.162.384-.325.768-.499,1.146l-.336.68c-.16.305-.313.614-.456.928l-.702,1.336c-.14.246-.285.489-.42.739-.388.772-.771,1.378-1.107,1.88l-.54.865c-1.708,2.636-3.673,5.172-5.841,7.536l-1.832,1.928-168.917,168.917c-20.878,20.88-20.402,47.433-12.992,65.32,7.408,17.886,25.846,36.999,55.374,36.999h154.395c2.702,0,4.893,2.191,4.893,4.893v17.188c0,2.702-2.191,4.893-4.893,4.893Z"/>
  <rect class="st0" x="84.67" y="63.342" width="26.974" height="134.869" rx="4.893" ry="4.893" transform="translate(-63.724 107.711) rotate(-45)"/>
  <path class="st0" d="M397.56,452.55l30.934-15.611c3.499-1.766,3.499-6.981,0-8.747l-30.934-15.611c-3.08-1.554-6.653.795-6.653,4.373v31.221c0,3.579,3.573,5.928,6.653,4.374Z"/>
  <path class="st0" d="M362.513,394.895l-57.865-29.201c-3.08-1.554-6.653.795-6.653,4.373v124.996c0,3.579,3.573,5.928,6.653,4.374l57.865-29.201c1.604-.81,2.624-2.509,2.624-4.373v-66.594c0-1.864-1.02-3.564-2.624-4.374Z"/>
  <path class="st0" d="M115.073,202.361L26.571,113.86c-1.894-1.896-4.9-1.965-6.71-.153h0l-.111.111c-26.334,26.334-26.334,69.033,0,95.367,26.334,26.334,69.033,26.334,95.367,0l.111-.111c1.809-1.812,1.739-4.815-.155-6.712Z"/>
</svg>