<?xml version="1.0" encoding="utf-8"?>
<!-- Generator: Adobe Illustrator 25.4.1, SVG Export Plug-In . SVG Version: 6.00 Build 0)  -->
<svg version="1.1" id="Layer_1" xmlns="http://www.w3.org/2000/svg" xmlns:xlink="http://www.w3.org/1999/xlink" x="0px" y="0px"
	 viewBox="0 0 194 150.368" style="enable-background:new 0 0 194 150.368;" xml:space="preserve">
<style type="text/css">
	.st0{fill:#FFFFFF;}
</style>
<path class="st0" d="M183.704,70.93c-10.36-10.36-25.743-12.636-38.31-6.828c3.06-5.986,4.787-12.767,4.787-19.951v0
	c0-24.239-19.65-43.888-43.888-43.888h0c-24.239,0-43.888,19.65-43.888,43.888v0c2.262,0,4.149-1.719,4.372-3.97
	c0.135-1.359,0.339-2.708,0.611-4.037c0.521-2.548,1.299-5.054,2.312-7.449c0.995-2.352,2.227-4.621,3.661-6.744
	c1.421-2.104,3.054-4.082,4.852-5.88c1.798-1.798,3.777-3.43,5.88-4.852c2.123-1.434,4.392-2.666,6.744-3.661
	c2.395-1.013,4.901-1.791,7.449-2.312c2.616-0.535,5.311-0.807,8.008-0.807h0c2.697,0,5.391,0.272,8.008,0.807
	c2.548,0.522,5.054,1.299,7.449,2.312c2.352,0.995,4.621,2.226,6.744,3.661c2.104,1.421,4.082,3.054,5.88,4.852
	c1.798,1.798,3.43,3.777,4.852,5.88c1.434,2.123,2.666,4.392,3.661,6.744c1.013,2.395,1.791,4.901,2.312,7.449
	c0.535,2.616,0.807,5.311,0.807,8.008s-0.271,5.391-0.807,8.008c-0.521,2.548-1.299,5.054-2.312,7.449
	c-0.995,2.352-2.227,4.621-3.661,6.744c-1.421,2.104-3.054,4.082-4.852,5.88c-0.046,0.046-0.093,0.092-0.14,0.138
	c-1.623-1.343-3.32-2.551-5.076-3.625c2.046-1.903,3.854-4.058,5.375-6.416h-27.911l0.007,0.002c-0.002,0-0.005,0-0.007,0v-0.002
	H43.896l0,0.002c-0.072,0-0.144,0.001-0.216,0.001c-0.084,0.001-0.167,0.003-0.251,0.005c-0.094,0.002-0.189,0.003-0.283,0.005
	c-0.122,0.003-0.244,0.007-0.366,0.011c-0.053,0.002-0.106,0.003-0.159,0.005c-0.151,0.005-0.302,0.012-0.453,0.019
	c-0.02,0.001-0.041,0.002-0.061,0.003c-5.048,0.24-9.872,1.332-14.332,3.137c-0.027,0.011-0.055,0.022-0.083,0.033
	c-0.088,0.036-0.176,0.073-0.264,0.109c-0.09,0.037-0.18,0.074-0.27,0.112c-0.025,0.011-0.051,0.022-0.076,0.032
	c-4.432,1.878-8.617,4.518-12.357,7.918c-0.014,0.013-0.028,0.026-0.042,0.039c-0.113,0.103-0.225,0.206-0.337,0.31
	c-0.038,0.035-0.075,0.07-0.112,0.105c-0.09,0.084-0.18,0.169-0.27,0.254c-0.067,0.064-0.133,0.128-0.2,0.192
	c-0.062,0.059-0.123,0.118-0.185,0.178c-0.26,0.254-0.517,0.511-0.771,0.771c-0.059,0.061-0.118,0.122-0.177,0.183
	c-0.065,0.067-0.13,0.134-0.194,0.201c-0.085,0.089-0.169,0.179-0.253,0.269c-0.035,0.038-0.071,0.075-0.106,0.113
	c-0.104,0.111-0.207,0.224-0.309,0.336c-0.013,0.015-0.026,0.029-0.04,0.043c-3.4,3.739-6.039,7.924-7.917,12.354
	c-0.011,0.027-0.023,0.053-0.034,0.08c-0.037,0.089-0.074,0.177-0.111,0.266c-0.037,0.09-0.074,0.179-0.111,0.269
	c-0.011,0.026-0.021,0.052-0.031,0.078c-1.806,4.461-2.899,9.287-3.138,14.337c-0.001,0.018-0.002,0.037-0.002,0.055
	c-0.007,0.153-0.014,0.306-0.019,0.459c-0.002,0.05-0.003,0.1-0.005,0.151c-0.004,0.125-0.008,0.249-0.011,0.374
	c-0.002,0.09-0.003,0.18-0.005,0.27c-0.002,0.088-0.004,0.176-0.005,0.264c-0.005,0.363-0.005,0.725,0,1.088
	c0.001,0.088,0.003,0.177,0.005,0.265c0.002,0.09,0.003,0.179,0.005,0.269c0.003,0.125,0.007,0.25,0.011,0.375
	c0.002,0.05,0.003,0.1,0.005,0.15c0.005,0.153,0.012,0.307,0.019,0.46c0.001,0.018,0.002,0.036,0.002,0.055
	c0.24,5.051,1.333,9.878,3.14,14.341c0.01,0.024,0.019,0.049,0.029,0.073c0.037,0.091,0.075,0.183,0.113,0.274
	c0.036,0.087,0.072,0.174,0.109,0.261c0.012,0.028,0.024,0.056,0.036,0.085c1.878,4.428,4.515,8.611,7.914,12.349
	c0.015,0.017,0.031,0.034,0.046,0.051c0.1,0.11,0.201,0.22,0.302,0.329c0.038,0.041,0.077,0.082,0.116,0.123
	c0.081,0.087,0.162,0.173,0.244,0.259c0.069,0.072,0.139,0.144,0.208,0.216c0.054,0.056,0.108,0.112,0.162,0.168
	c0.255,0.261,0.512,0.519,0.773,0.773c0.056,0.055,0.113,0.109,0.169,0.163c0.072,0.069,0.143,0.139,0.215,0.207
	c0.086,0.082,0.173,0.163,0.259,0.244c0.041,0.039,0.082,0.077,0.123,0.116c0.109,0.101,0.219,0.202,0.328,0.302
	c0.017,0.016,0.034,0.031,0.051,0.047c3.737,3.397,7.917,6.035,12.344,7.912c0.03,0.013,0.06,0.026,0.09,0.039
	c0.085,0.036,0.17,0.071,0.256,0.106c0.093,0.038,0.186,0.077,0.279,0.115c0.023,0.009,0.045,0.018,0.068,0.027
	c4.464,1.808,9.293,2.902,14.346,3.142c0.015,0.001,0.03,0.001,0.045,0.002c0.156,0.007,0.313,0.014,0.469,0.02
	c0.046,0.002,0.092,0.003,0.138,0.004c0.129,0.004,0.258,0.008,0.387,0.012c0.083,0.002,0.166,0.003,0.249,0.005
	c0.095,0.002,0.19,0.004,0.285,0.005c0.171,0.002,0.343,0.003,0.514,0.003c0.009,0,0.019,0,0.028,0h0
	c11.232,0,22.464-4.285,31.034-12.855c7.942-7.942,12.855-18.914,12.855-31.034H75.26c-8.57,0-15.517,6.947-15.517,15.517
	c0,2.109,0.421,4.119,1.183,5.952c-14.661-6.024-31.922-3.773-44.641,6.751c-0.047-0.046-0.094-0.092-0.14-0.138
	c-0.046-0.046-0.092-0.094-0.138-0.14c13.386-16.177,13.386-39.705,0-55.882c0.046-0.047,0.092-0.094,0.138-0.14
	c0.046-0.046,0.093-0.092,0.14-0.139c8.732,7.226,19.605,10.548,30.309,9.973c-1.593,1.977-2.683,4.225-3.268,6.574h-2.985
	c-2.306,0-4.176,1.869-4.176,4.175h7.247c1.107,0,2.169-0.44,2.953-1.223l11.682-11.682c0.016-0.005,0.032-0.01,0.047-0.015
	c3.028,1.734,6.166,3.203,9.379,4.417c-3.439,0.551-6.744,2.146-9.395,4.797c-2.861,2.861-4.493,6.482-4.908,10.213h-3.071
	c-2.306,0-4.176,1.87-4.176,4.176h7.247c1.107,0,2.169-0.44,2.953-1.223L72.432,91.87c7.465,2.158,15.236,2.971,22.931,2.436v11.912
	c0,24.239,19.649,43.888,43.888,43.888h0c0-6.06-4.912-10.972-10.972-10.972c0-6.06-4.912-10.972-10.971-10.972h16.071
	c-6.931-11.981-19.362-20.382-33.841-21.748v-0.022c3.815-3.826,5.948-8.695,6.399-13.688c1.665-0.392,3.317-0.85,4.953-1.373
	l7.138,7.138c17.14,17.139,44.928,17.139,62.067,0c-4.285-4.285-11.232-4.285-15.517,0c-4.285-4.285-11.231-4.285-15.516-0.001
	l11.364-11.364c-13.372-3.571-28.103-0.721-39.307,8.551l-0.015-0.015c-0.004-2.759-0.51-5.4-1.432-7.837
	c6.215-3.036,12.052-7.109,17.25-12.221c0.005-0.005,0.01-0.01,0.016-0.015c0.561-0.547,1.106-1.109,1.637-1.685l0.001,0.001
	c2.848-2.848,6.167-5.052,9.863-6.552c1.777-0.721,3.636-1.271,5.525-1.637c1.872-0.363,3.79-0.546,5.7-0.546
	c1.91,0,3.828,0.184,5.7,0.546c1.889,0.366,3.748,0.916,5.525,1.637c3.697,1.499,7.015,3.703,9.863,6.552
	c2.848,2.848,5.052,6.167,6.551,9.863c0.721,1.777,1.271,3.636,1.637,5.525c0.363,1.872,0.546,3.79,0.546,5.7
	s-0.184,3.828-0.546,5.7c-0.366,1.889-0.916,3.748-1.637,5.525c-1.499,3.697-3.703,7.015-6.551,9.863h0
	c-2.848,2.848-6.167,5.052-9.863,6.551c-1.777,0.721-3.636,1.272-5.525,1.637c-1.872,0.363-3.79,0.546-5.7,0.546
	c-1.91,0-3.828-0.184-5.7-0.546c-1.889-0.366-3.747-0.916-5.525-1.637c-2.495-1.012-4.818-2.345-6.941-3.981
	c-1.771-1.365-4.275-1.218-5.857,0.363l-0.019,0.019h0c13.277,13.277,34.804,13.277,48.081,0l0,0
	C196.982,105.734,196.982,84.207,183.704,70.93z M118.52,73.53c-1.745,0-3.159-1.414-3.159-3.159c0-1.745,1.414-3.159,3.159-3.159
	c1.745,0,3.159,1.414,3.159,3.159C121.679,72.115,120.264,73.53,118.52,73.53z"/>
</svg>
