<?xml version="1.0" encoding="UTF-8"?>
<svg id="Layer_1" xmlns="http://www.w3.org/2000/svg" version="1.1" viewBox="0 0 432.394 500">
  <!-- Generator: Adobe Illustrator 29.4.0, SVG Export Plug-In . SVG Version: 2.1.0 Build 152)  -->
  <defs>
    <style>
      .st0 {
        fill: #fff;
      }
    </style>
  </defs>
  <path class="st0" d="M432.392,217.19c.256-57.705-22.182-112.163-63.182-153.345C328.221,22.674,273.878,0,216.196,0h-.003c-57.746,0-112.038,22.489-152.871,63.323C22.488,104.158,0,158.449,0,216.197c0,40.892,11.445,80.662,33.1,115.01l13.76,21.827c-7.955,15.978-8.492,35.388.259,52.499,12.185,23.826,38.524,35.659,63.521,30.524v49.454c0,8.002,6.487,14.489,14.489,14.489h2.769c8.002,0,14.489-6.487,14.489-14.489v-27.485c0-7.743,6.278-14.021,14.022-14.021s14.02,6.278,14.02,14.021v27.485c0,8.002,6.487,14.489,14.489,14.489h2.769c8.002,0,14.489-6.487,14.489-14.489v-27.485c0-7.743,6.278-14.021,14.021-14.021s14.02,6.278,14.02,14.021v27.485c0,8.002,6.487,14.489,14.489,14.489h2.769c8.002,0,14.489-6.487,14.489-14.489v-27.485c0-7.743,6.278-14.021,14.021-14.021s14.02,6.278,14.02,14.021v27.485c0,8.002,6.488,14.489,14.489,14.489h2.768c8.003,0,14.49-6.487,14.49-14.489v-49.453c23.886,4.897,49.243-5.648,62.105-27.924,10.14-17.562,10.08-38.206,1.674-55.096l13.763-21.831c21.472-34.06,32.916-73.487,33.095-114.017ZM103.935,328.003c-35.625,0-56.752-25.959-56.752-64.622s37.558-72.908,79.536-72.908c16.936,0,74.979-.414,74.979,45.982s-62.137,91.549-97.763,91.549ZM234.828,385.998c-4.789,0-9.383-1.903-12.77-5.289-3.236-3.237-8.485-3.237-11.723,0-3.386,3.386-7.979,5.289-12.768,5.289h-.002c-12.71,0-21.802-9.896-18.109-19.721,8.324-22.12,25.261-51.529,36.74-51.529s28.421,29.408,36.74,51.529c3.697,9.825-5.395,19.721-18.108,19.721ZM328.459,328.003c-35.625,0-97.763-45.153-97.763-91.549s58.042-45.982,74.98-45.982c41.976,0,79.536,34.244,79.536,72.908s-21.127,64.622-56.753,64.622Z"/>
</svg>