<?xml version="1.0" encoding="utf-8"?>
<!-- Generator: Adobe Illustrator 25.4.1, SVG Export Plug-In . SVG Version: 6.00 Build 0)  -->
<svg version="1.1" id="Layer_1" xmlns="http://www.w3.org/2000/svg" xmlns:xlink="http://www.w3.org/1999/xlink" x="0px" y="0px"
	 viewBox="0 0 194 175" style="enable-background:new 0 0 194 175;" xml:space="preserve">
<style type="text/css">
	.st0{fill:#FFFFFF;}
</style>
<g>
	<g>
		<circle class="st0" cx="81.491" cy="25.462" r="12.408"/>
	</g>
	<g>
		<path class="st0" d="M189.525,138.681h3.634l-8.36-8.36c-2.592-2.592-6.107-4.048-9.773-4.048h-19.191
			c0.064-0.508,0.1-1.025,0.1-1.551v0c0-13.705,11.11-24.815,24.815-24.815c3.802,0,7.278-2.148,8.978-5.549l3.429-6.859
			l-24.815-24.815L106.306,0.647c0,22.635,13.33,43.147,34.015,52.34l21.82,9.698h-43.427l-12.408-12.408v0
			c-14.208-12.432-35.422-12.432-49.63,0v0l-0.13-0.13c-0.808-5.198-5.302-9.176-10.727-9.176h-4.239h-3.515H25.656H0.841
			l3.073,3.073c6.503,6.503,16.692,7.512,24.344,2.411v0h7.424l-11.09,11.091L7.045,75.092h4.346
			c9.197,0,17.115-6.491,18.918-15.509l13.959-9.306c0,13.705,11.11,24.815,24.815,24.815h12.408L93.898,87.5
			c0,20.558,16.665,37.223,37.223,37.223c0,7.944,3.156,15.563,8.773,21.181l28.449,28.449h23.264l-0.141-0.188
			c-5.363-7.151-14.956-9.646-23.124-6.016v0l-20.254-30.38l26.457-5.291C178.52,136.45,183.907,138.681,189.525,138.681z
			 M174.547,78.194c1.713,0,3.102,1.389,3.102,3.102c0,1.713-1.389,3.102-3.102,3.102c-1.713,0-3.102-1.389-3.102-3.102
			C171.445,79.583,172.834,78.194,174.547,78.194z M121.122,74.293c-0.001,0-0.001,0-0.001,0c-6.819,0-13.476-1.312-19.787-3.899
			c-1.829-0.75-3.604-1.597-5.321-2.539h51.507l-7.704,2.963C133.82,73.123,127.531,74.293,121.122,74.293z M143.528,87.5
			L143.528,87.5l-9.513-9.513c2.579-0.597,5.137-1.376,7.655-2.344l6.405-2.463C145.212,77.226,143.528,82.166,143.528,87.5z"/>
	</g>
</g>
</svg>
