<?xml version="1.0" encoding="UTF-8"?>
<svg id="Layer_1" xmlns="http://www.w3.org/2000/svg" version="1.1" viewBox="0 0 469.697 500">
  <!-- Generator: Adobe Illustrator 29.4.0, SVG Export Plug-In . SVG Version: 2.1.0 Build 152)  -->
  <defs>
    <style>
      .st0 {
        fill: #fff;
      }
    </style>
  </defs>
  <path class="st0" d="M402.139,110.729C387.076,44.024,334.29,0,251.734,0,110.662,0-3.319,115.242.074,256.115c3.198,133.168,112.958,241.463,247.05,243.848,27.481.483,65.285-3.723,104.323-20.037v-102.024c-28.179,15.653-60.723,24.583-95.33,24.583-.373,0-.746-.033-1.136-.033-.763,0-1.558.048-2.305.048-103.95,0-188.226-81.116-188.226-188.137,0-126.397,123.72-225.229,247.992-184.655,38.551,12.59,60.286,41.3,69.798,75.554-35.873-10.091-58.777-10.171-78.806-8.221-149.318,14.508-179.964,184.398-88.156,229.373,41.96,20.553,80.267,11.736,108.511-3.966,34.996-19.44,58.013-53.712,69.927-91.723,4.269-13.638,7.401-33.385,9.528-46.33v151.336h66.454V95.028c-20.614,13.073-48.907,19.15-67.59,15.685l.033.016ZM387.742,163.038c-7.58,128.058-130.018,133.99-157.093,74.169-24.916-55.067,35.37-155.446,143.458-118.515,7.353,2.515,12.726,8.995,13.359,16.701.746,9.108.811,18.377.276,27.645Z"/>
</svg>