<?xml version="1.0" encoding="utf-8"?>
<!-- Generator: Adobe Illustrator 25.4.1, SVG Export Plug-In . SVG Version: 6.00 Build 0)  -->
<svg version="1.1" id="Layer_1" xmlns="http://www.w3.org/2000/svg" xmlns:xlink="http://www.w3.org/1999/xlink" x="0px" y="0px"
	 viewBox="0 0 420 420" style="enable-background:new 0 0 420 420;" xml:space="preserve">
<style type="text/css">
	.st0{fill:#FFFFFF;}
</style>
<g>
	<path class="st0" d="M96.129,264.941l-1.087,10.955l10.966,0.963c0.43,0.037,43.599,3.885,91.645,13.054
		c78.516,14.985,108.804,31.938,120.387,43.522l15.394-15.393c-11.571-11.571-28.509-41.82-43.488-120.213
		c-9.183-48.059-13.051-91.388-13.088-91.82l-0.965-10.965l-10.953,1.087c-0.628,0.064-60.124,5.357-111.083-39.129l13.037-13.037
		L122.932,0.001L0,122.932l43.963,43.963l13.034-13.034C101.214,204.585,96.186,264.336,96.129,264.941z M256.2,118.139
		c1.712,15.939,5.637,48.531,12.33,83.595c5.005,26.226,10.586,48.954,16.714,68.116l-49.422-49.422
		c3.135-5.687,4.809-12.1,4.809-18.774c0-10.411-4.055-20.199-11.416-27.561c-15.196-15.196-39.924-15.197-55.121,0
		c-7.361,7.362-11.415,17.15-11.415,27.561s4.054,20.199,11.415,27.56c7.362,7.362,17.15,11.416,27.56,11.416
		c6.674,0,13.088-1.674,18.774-4.809l49.422,49.422c-19.162-6.127-41.889-11.708-68.115-16.713
		c-35.065-6.692-67.657-10.618-83.596-12.33c-0.251-21.881-5.628-72.669-45.718-117.763l66.016-66.016
		C183.534,112.515,234.321,117.889,256.2,118.139z M189.486,213.821c-3.25-3.25-5.039-7.571-5.039-12.167
		c0-4.597,1.789-8.918,5.04-12.167c3.354-3.355,7.761-5.032,12.167-5.032c4.406,0,8.813,1.677,12.167,5.032h0.001
		c3.25,3.25,5.04,7.571,5.04,12.167c0,4.596-1.79,8.917-5.04,12.167C207.112,220.53,196.195,220.53,189.486,213.821z
		 M30.786,122.932l92.146-92.146l13.177,13.177l-92.146,92.146L30.786,122.932z"/>
	<path class="st0" d="M420,237.494c0-37.469-11.709-74.368-33.111-104.855c7.331-12.466,5.653-28.807-5.038-39.497h-0.001
		c-12.682-12.681-33.318-12.682-46.002,0c-12.683,12.683-12.683,33.319,0,46.002c6.343,6.341,14.67,9.511,23.001,9.511
		c3.82,0,7.639-0.676,11.268-2.01c18.184,26.548,28.114,58.454,28.114,90.849c0,32.396-9.929,64.303-28.115,90.852
		c-11.54-4.241-25.017-1.746-34.268,7.502c-9.25,9.25-11.746,22.729-7.503,34.269c-26.549,18.184-58.455,28.113-90.85,28.113
		c-32.395,0-64.301-9.929-90.849-28.114c4.243-11.54,1.747-25.019-7.502-34.269c-12.683-12.683-33.32-12.683-46.003,0
		c-12.682,12.683-12.682,33.32,0,46.003c6.341,6.342,14.672,9.512,23.001,9.512c5.712,0,11.424-1.492,16.495-4.474
		C163.125,408.291,200.025,420,237.495,420c0.002,0-0.002,0,0.001,0c37.467,0,74.371-11.709,104.859-33.111
		c5.071,2.982,10.781,4.473,16.494,4.473c8.329,0,16.661-3.171,23.002-9.511c10.69-10.69,12.369-27.031,5.038-39.497
		C408.291,311.865,420,274.964,420,237.494z M351.241,123.75c-4.195-4.195-4.195-11.021,0-15.215
		c2.097-2.098,4.852-3.146,7.607-3.146c2.755,0,5.511,1.049,7.609,3.146c4.195,4.195,4.195,11.021,0.001,15.215
		C362.263,127.945,355.437,127.946,351.241,123.75z M108.534,366.457c-4.195-4.195-4.195-11.021,0-15.216
		c2.097-2.098,4.853-3.146,7.608-3.146s5.511,1.048,7.608,3.146c4.195,4.195,4.195,11.021,0,15.216
		C119.555,370.654,112.728,370.654,108.534,366.457z M366.458,366.457c-4.195,4.193-11.022,4.195-15.217,0
		c-4.195-4.195-4.195-11.021,0-15.216c2.097-2.097,4.852-3.146,7.607-3.146c2.755,0,5.511,1.049,7.609,3.146
		C370.653,355.437,370.653,362.262,366.458,366.457z"/>
</g>
</svg>
