<?xml version="1.0" encoding="utf-8"?>
<!-- Generator: Adobe Illustrator 25.4.1, SVG Export Plug-In . SVG Version: 6.00 Build 0)  -->
<svg version="1.1" id="Layer_1" xmlns="http://www.w3.org/2000/svg" xmlns:xlink="http://www.w3.org/1999/xlink" x="0px" y="0px"
	 viewBox="0 0 190 188" style="enable-background:new 0 0 190 188;" xml:space="preserve">
<style type="text/css">
	.st0{fill:#FFFFFF;}
</style>
<path class="st0" d="M95,0.765c-51.96,0-94.082,41.864-94.082,93.506c0,48.262,36.792,87.97,84.015,92.964v-19.437
	c0-3.967-1.487-7.022-5.591-8.128c-6.888-1.86-21.971-5.514-29.289-14.458c-0.568-0.696-4.135-5.153-3.854-10.402
	c0.305-5.739,6.558-98.019,6.558-98.019c0-2.109,1.84-3.82,4.106-3.82H63.6c1.198,0,2.268,0.479,3.013,1.242
	c0.635,0.649,0.92,1.561,0.877,2.464c-0.013,0.314-0.027,0.591-0.027,0.974l-4.951,80.649c0,2.109,1.837,3.82,4.108,3.82h16.636
	c2.266,0,4.106-1.71,4.106-3.82V37.668c0-2.112,1.837-3.822,4.106-3.822h7.056c2.268,0,4.106,1.71,4.106,3.822v80.634
	c0,2.109,1.84,3.82,4.106,3.82h16.638c2.268,0,4.106-1.71,4.106-3.82l-4.949-80.649c0-0.384-0.016-0.66-0.029-0.974
	c-0.043-0.903,0.242-1.815,0.877-2.464c0.745-0.763,1.815-1.242,3.011-1.242h6.74c2.266,0,4.106,1.71,4.106,3.82
	c-0.018-0.259,6.188,91.508,6.562,97.85c0.337,5.666-3.325,9.898-3.859,10.571c-7.112,8.944-22.821,12.596-29.287,14.458
	c-4.386,1.262-5.593,4.161-5.593,8.128v19.437c47.231-4.988,84.027-44.701,84.027-92.964C189.082,42.629,146.958,0.765,95,0.765"/>
</svg>
